<?xml version="1.0" encoding="UTF-8" standalone="no"?>
<!-- Created with Inkscape (http://www.inkscape.org/) -->

<svg
   xmlns:dc="http://purl.org/dc/elements/1.1/"
   xmlns:cc="http://creativecommons.org/ns#"
   xmlns:rdf="http://www.w3.org/1999/02/22-rdf-syntax-ns#"
   xmlns:svg="http://www.w3.org/2000/svg"
   xmlns="http://www.w3.org/2000/svg"
   version="1.1"
   width="319.19983"
   height="67.609833"
   id="svg2"
   xml:space="preserve"><metadata
     id="metadata8"><rdf:RDF><cc:Work
         rdf:about=""><dc:format>image/svg+xml</dc:format><dc:type
           rdf:resource="http://purl.org/dc/dcmitype/StillImage" /><dc:title></dc:title></cc:Work></rdf:RDF></metadata><defs
     id="defs6"><clipPath
       id="clipPath16"><path
         d="M 0,780 1096,780 1096,0 0,0 0,780 z"
         id="path18" /></clipPath></defs><g
     transform="matrix(1.25,0,0,-1.25,-2.9271918,969.94844)"
     id="g10"><g
       transform="translate(-161.94917,-23.135598)"
       id="g12"><g
         transform="translate(92.31339,49.662267)"
         clip-path="url(#clipPath16)"
         id="g14"><text
           transform="matrix(1,0,0,-0.86689687,384.4702,569.2168)"
           id="text138"><tspan
             x="260.45352"
             id="tspan140"
             style="font-size:99.4477005px;font-variant:normal;font-weight:normal;font-stretch:normal;writing-mode:lr-tb;fill:#ffffff;fill-opacity:1;fill-rule:nonzero;stroke:none;font-family:Great Vibes;-inkscape-font-specification:GreatVibes-Regular" /></text>
<path
           d="m 292.679,699.941 c -0.04,0.179 -0.104,0.559 -0.127,0.748 -0.448,3.679 2.385,8.683 6.587,11.641 1.55,1.091 2.768,1.377 3.626,0.851 0.474,-0.292 0.839,-0.805 1.092,-1.409 0.075,-0.246 0.154,-0.48 0.233,-0.703 0.155,-0.638 0.2,-1.322 0.102,-1.949 -0.236,-2.721 -3.955,-5.706 -6.7,-7.125 -1.427,-0.74 -2.996,-1.516 -4.813,-2.054 m -67.515,1.761 c -2.99,-2.934 -8.748,-4.447 -11.203,-2.945 -1.024,0.628 -1.366,1.718 -1.025,3.239 2.472,3.294 13.435,4.555 15.332,4.702 0.593,0.046 1.185,0.079 1.776,0.106 -1.873,-2.019 -3.57,-3.817 -4.88,-5.102 m -12.049,10.645 c -2.762,-2.624 -7.724,-3.987 -9.837,-2.699 -0.717,0.436 -1.099,0.74 -1.099,2.129 0.642,3.169 8.429,4.798 10.44,5.139 1.808,0.306 3.58,0.427 5.335,0.417 -1.857,-1.981 -3.557,-3.767 -4.839,-4.986 m -13.846,17.912 c -2.68,1.465 -5.384,3.699 -6.402,6.981 -0.265,1.209 -0.308,2.549 -0.05,4.035 0.787,4.527 3.886,6.558 6.655,6.594 0.061,-0.002 0.123,-0.015 0.185,-0.017 0.062,0.002 0.124,0.015 0.185,0.017 2.769,-0.036 5.867,-2.067 6.654,-6.594 0.259,-1.486 0.217,-2.826 -0.05,-4.035 -1.018,-3.282 -3.721,-5.516 -6.401,-6.981 -0.388,-0.127 -0.515,-0.101 -0.776,0 m -12.575,-13.343 c 2.012,-0.341 9.799,-1.97 10.441,-5.139 0,-1.389 -0.383,-1.693 -1.1,-2.129 -2.112,-1.288 -7.075,0.075 -9.836,2.699 -1.283,1.219 -2.982,3.005 -4.838,4.986 1.753,0.01 3.528,-0.111 5.333,-0.417 m -15.648,-10.218 c 1.896,-0.147 12.859,-1.408 15.331,-4.702 0.342,-1.521 -0.001,-2.611 -1.024,-3.239 -2.456,-1.502 -8.212,0.011 -11.203,2.945 -1.31,1.285 -3.007,3.083 -4.879,5.102 0.589,-0.027 1.181,-0.06 1.775,-0.106 m -64.283,-6.009 c -0.025,-0.189 -0.088,-0.569 -0.128,-0.748 -1.818,0.538 -3.385,1.314 -4.814,2.054 -2.745,1.419 -6.465,4.404 -6.699,7.125 -0.098,0.627 -0.054,1.311 0.102,1.949 0.08,0.223 0.158,0.457 0.232,0.703 0.252,0.604 0.618,1.117 1.094,1.409 0.855,0.526 2.075,0.24 3.625,-0.851 4.202,-2.958 7.035,-7.962 6.588,-11.641 m 50.53,16.445 c -2.462,-0.146 -5.846,-0.626 -8.204,0.206 -1.472,0.519 -3.637,1.28 -4.256,3.364 -0.247,1.628 0.619,2.527 1.476,2.828 2.118,0.743 5.298,0.086 6.719,-1.056 1.353,-1.086 3.289,-2.997 5.452,-5.25 -0.394,-0.037 -0.79,-0.069 -1.187,-0.092 m 12.94,8.559 c -2.191,0.365 -8.577,1.26 -9.701,4.073 -0.138,1.227 0.29,1.682 0.932,1.901 1.599,0.553 4.546,-0.564 5.845,-1.461 1.337,-0.924 3.24,-2.713 5.344,-4.845 -0.814,0.092 -1.624,0.199 -2.42,0.332 m 61.773,4.513 c 1.298,0.897 4.247,2.014 5.843,1.461 0.643,-0.219 1.072,-0.674 0.932,-1.901 -1.124,-2.813 -7.51,-3.708 -9.7,-4.073 -0.797,-0.133 -1.605,-0.24 -2.419,-0.332 2.104,2.132 4.005,3.921 5.344,4.845 m 14.279,-7.73 c 1.421,1.142 4.601,1.799 6.721,1.056 0.855,-0.301 1.722,-1.2 1.474,-2.828 -0.619,-2.084 -2.783,-2.845 -4.255,-3.364 -2.359,-0.832 -5.744,-0.352 -8.204,-0.206 -0.397,0.023 -0.793,0.055 -1.188,0.092 2.163,2.253 4.1,4.164 5.452,5.25 m 78.908,-16.666 c -3.173,1.754 -8.719,0.086 -13.49,-4.056 -7.499,-6.512 -14.413,-5.92 -15.68,-5.315 -0.891,0.426 -1.637,0.875 -2.204,1.468 0.669,0.167 1.338,0.355 1.991,0.587 7.204,2.558 9.19,5.858 9.846,9.747 0.162,0.956 0.269,4.961 -2.777,5.779 -1.114,0.492 -2.524,0.153 -4.205,-1.029 -4.429,-3.117 -7.404,-8.448 -6.924,-12.399 0.03,-0.247 0.132,-0.653 0.188,-0.885 -0.425,-0.1 -0.957,-0.199 -1.45,-0.295 -2.292,-0.445 -8.92,-1.059 -17.69,0.715 1.07,-0.082 2.147,-0.142 3.227,-0.163 2.918,-0.053 6.301,0.234 8.796,1.793 5.973,3.733 7.083,10.481 4.699,16.336 -1.851,4.541 -4.815,5.973 -7.329,6.264 0.005,-0.015 0.006,-0.03 0.012,-0.045 -0.863,0.046 -1.584,-0.326 -1.623,-0.849 -0.041,-0.537 0.647,-1.027 1.537,-1.095 0.884,-0.067 1.633,0.308 1.683,0.839 1.855,-0.655 3.714,-2.186 4.967,-5.408 1.511,-3.884 1.004,-6.892 -0.075,-9.119 -1.62961,-2.80347 -5.21676,-4.05452 -9.11879,-4.51933 -2.83595,-0.33782 -5.83824,-0.26033 -8.37621,-0.0617 l 0,0 c -10.083,0.793 -19.72,4.177 -29.72,5.525 l 0,0 c -2.23,0.3 -4.633,0.561 -7.096,0.692 1.119,1.217 2.262,2.457 3.391,3.668 7.431,-1.317 16.708,-1.223 17.738,5.772 0.354,2.827 -1.132,3.953 -2.121,4.487 -2.297,1.239 -5.98,0.174 -7.611,-1.139 -1.489,-1.194 -3.597,-3.289 -5.966,-5.773 -5.99,0.669 -11.791,2.47 -17.785,3.182 0.568,0.605 1.137,1.212 1.705,1.81 1.543,0.016 3.103,0.1 4.699,0.259 3.781,0.375 11.297,1.972 11.272,6.743 0.051,1.97 -0.559,2.576 -1.478,3.06 -1.928,1.011 -5.332,-0.585 -6.679,-1.514 -1.525,-1.055 -3.733,-3.167 -6.139,-5.634 -2.792,-0.241 -5.64,-0.253 -8.384,-0.019 -3.9,0.331 -10.576,1.315 -15.938,3.656 -0.125,0.057 -0.252,0.123 -0.378,0.184 2.841,1.644 5.623,4.148 6.491,7.822 0.49,1.53 0.646,3.277 0.3,5.273 l 0.033,0.005 c -0.764,4.982 -4.244,7.243 -7.35,7.274 -0.046,10e-4 -0.09,-0.005 -0.136,-0.005 -0.044,0 -0.089,0.006 -0.135,0.005 -0.083,-10e-4 -0.169,-0.01 -0.253,-0.013 -0.085,0.003 -0.171,0.012 -0.256,0.013 -0.043,10e-4 -0.089,-0.005 -0.132,-0.005 -0.046,0 -0.091,0.006 -0.134,0.005 -3.109,-0.031 -6.587,-2.292 -7.353,-7.274 l 0.032,-0.005 c -0.344,-1.996 -0.189,-3.743 0.301,-5.273 0.868,-3.674 3.651,-6.178 6.492,-7.822 -0.127,-0.061 -0.253,-0.127 -0.378,-0.184 -5.364,-2.341 -12.04,-3.325 -15.939,-3.656 -2.743,-0.234 -5.591,-0.222 -8.383,0.019 -2.405,2.467 -4.613,4.579 -6.138,5.634 -1.347,0.929 -4.752,2.525 -6.68,1.514 -0.918,-0.484 -1.529,-1.09 -1.479,-3.06 -0.025,-4.771 7.493,-6.368 11.274,-6.743 1.595,-0.159 3.154,-0.243 4.697,-0.259 0.568,-0.598 1.137,-1.205 1.705,-1.81 -5.994,-0.712 -11.793,-2.513 -17.783,-3.182 -2.371,2.484 -4.479,4.579 -5.968,5.773 -1.631,1.313 -5.312,2.378 -7.61,1.139 -0.989,-0.534 -2.475,-1.66 -2.122,-4.487 1.03,-6.995 10.308,-7.089 17.738,-5.772 1.13,-1.211 2.273,-2.451 3.392,-3.668 -2.462,-0.131 -4.867,-0.392 -7.096,-0.692 -9.998,-1.348 -19.638,-4.732 -29.722,-5.525 -6.028,-0.472 -14.68,-0.26 -17.493,4.581 -1.08,2.227 -1.585,5.235 -0.075,9.119 1.253,3.222 3.111,4.753 4.968,5.408 0.048,-0.531 0.798,-0.906 1.681,-0.839 0.891,0.068 1.577,0.558 1.537,1.095 -0.039,0.523 -0.759,0.895 -1.623,0.849 0.005,0.015 0.009,0.03 0.012,0.045 -2.515,-0.291 -5.477,-1.723 -7.328,-6.264 -2.384,-5.855 -1.273,-12.603 4.698,-16.336 2.494,-1.559 5.878,-1.846 8.796,-1.793 1.081,0.021 2.157,0.081 3.23,0.163 -8.773,-1.774 -15.401,-1.16 -17.693,-0.715 -0.493,0.096 -1.024,0.195 -1.45,0.295 0.056,0.232 0.158,0.638 0.188,0.885 0.481,3.951 -2.496,9.282 -6.923,12.399 -1.682,1.182 -3.091,1.521 -4.206,1.029 -3.045,-0.818 -2.938,-4.823 -2.777,-5.779 0.656,-3.889 2.642,-7.189 9.847,-9.747 0.653,-0.232 1.32,-0.42 1.991,-0.587 -0.566,-0.593 -1.312,-1.042 -2.205,-1.468 -1.267,-0.605 -8.182,-1.197 -15.682,5.315 -4.769,4.142 -10.314,5.81 -13.487,4.056 -1.679,-0.93 -2.409,-2.691 -2.057,-4.962 0.331,-2.124 1.554,-3.661 3.358,-4.215 1.611,-0.492 3.403,-0.119 4.364,0.911 0.426,0.457 0.641,0.997 0.645,1.574 0.008,0.242 -0.032,0.506 -0.122,0.774 -0.018,0.065 -0.038,0.13 -0.062,0.196 -0.008,0.022 -0.024,0.038 -0.035,0.057 -0.369,0.804 -1.084,1.267 -1.618,1.036 -0.546,-0.236 -0.696,-1.106 -0.333,-1.942 0.227,-0.528 0.602,-0.914 0.985,-1.07 -0.018,-0.024 -0.029,-0.05 -0.052,-0.073 -0.746,-0.8 -2.23,-1.09 -3.534,-0.69 -0.88,0.271 -2.412,1.093 -2.798,3.567 -0.301,1.939 0.269,3.366 1.651,4.128 2.429,1.346 7.529,0.417 12.566,-3.956 3.159,-2.745 7.469,-4.739 9.726,-5.311 2.194,-0.557 5.992,-0.843 7.697,0.282 1.154,0.762 1.514,1.057 1.895,1.577 6.502,-1.352 13.598,-0.034 18.473,1.135 l -0.004,10e-4 c 3.106,0.492 6.306,1.204 8.991,2.235 0.03,0.011 8.391,1.809 12.524,2.828 7.218,1.775 14.357,3.114 21.753,2.949 2.095,-2.266 4.002,-4.297 5.451,-5.717 2.351,-2.307 6.192,-3.754 9.193,-3.754 1.174,0 2.218,0.221 2.996,0.697 0.77,0.473 1.543,1.335 1.541,2.88 0.313,2.131 -1.357,4.337 -3.467,5.708 -4.994,3.24 -11.571,3.948 -17.865,3.712 -1.17,1.275 -2.347,2.552 -3.499,3.792 2.151,0.41 4.073,0.87 5.46,1.191 4.151,0.963 8.199,1.812 12.331,1.962 2.057,-2.202 3.954,-4.209 5.367,-5.551 2.016,-1.914 5.507,-3.413 8.263,-3.413 0.976,0 1.859,0.188 2.552,0.61 0.914,0.558 1.824,1.74 1.339,4.167 -0.079,0.747 -0.359,1.488 -0.867,2.161 -3.777,4.999 -10.619,5.747 -16.517,5.488 -0.711,-0.03 -1.416,-0.087 -2.119,-0.155 -0.528,0.565 -1.062,1.133 -1.594,1.697 3.265,0.046 6.471,0.451 9.764,1.342 3.528,0.953 8.766,2.456 13.009,4.924 0.185,-0.027 0.185,-0.027 0.37,0 4.243,-2.468 9.479,-3.971 13.008,-4.924 3.295,-0.891 6.501,-1.296 9.765,-1.342 -0.533,-0.564 -1.065,-1.132 -1.594,-1.697 -0.703,0.068 -1.409,0.125 -2.12,0.155 -5.897,0.259 -12.74,-0.489 -16.516,-5.488 -0.505,-0.673 -0.788,-1.414 -0.867,-2.161 -0.485,-2.427 0.423,-3.609 1.339,-4.167 0.693,-0.422 1.578,-0.61 2.551,-0.61 2.756,0 6.246,1.499 8.262,3.413 1.413,1.342 3.31,3.349 5.37,5.551 4.133,-0.15 8.179,-0.999 12.329,-1.962 1.388,-0.321 3.309,-0.781 5.46,-1.191 -1.151,-1.24 -2.329,-2.517 -3.498,-3.792 -6.296,0.236 -12.872,-0.472 -17.864,-3.712 -2.111,-1.371 -3.782,-3.577 -3.466,-5.708 -0.005,-1.545 0.769,-2.407 1.538,-2.88 0.778,-0.476 1.823,-0.697 2.996,-0.697 3.003,0 6.844,1.447 9.194,3.754 1.45,1.42 3.355,3.451 5.451,5.717 7.397,0.165 14.535,-1.174 21.753,-2.949 4.132,-1.019 12.494,-2.817 12.522,-2.828 2.686,-1.031 5.887,-1.743 8.992,-2.235 l -0.005,-10e-4 c 4.875,-1.169 11.973,-2.487 18.474,-1.135 0.382,-0.52 0.741,-0.815 1.896,-1.577 1.706,-1.125 5.502,-0.839 7.698,-0.282 2.255,0.572 6.565,2.566 9.724,5.311 5.037,4.373 10.137,5.302 12.567,3.956 1.382,-0.762 1.952,-2.189 1.65,-4.128 -0.385,-2.474 -1.916,-3.296 -2.798,-3.567 -1.303,-0.4 -2.787,-0.11 -3.534,0.69 -0.021,0.023 -0.032,0.049 -0.052,0.073 0.384,0.156 0.758,0.542 0.986,1.07 0.363,0.836 0.214,1.706 -0.332,1.942 -0.534,0.231 -1.249,-0.232 -1.618,-1.036 -0.012,-0.019 -0.029,-0.035 -0.037,-0.057 -0.025,-0.066 -0.043,-0.131 -0.062,-0.196 -0.089,-0.268 -0.13,-0.532 -0.121,-0.774 0.004,-0.577 0.22,-1.117 0.645,-1.574 0.96,-1.03 2.753,-1.403 4.365,-0.911 1.802,0.554 3.026,2.091 3.358,4.215 0.352,2.271 -0.379,4.032 -2.058,4.962"
           id="path200"
           style="fill:#ffffff;fill-opacity:1;fill-rule:nonzero;stroke:none" /><path
           d="m 994.895,178.198 54.603,0"
           id="path346"
           style="fill:#ffffff;fill-opacity:1;fill-rule:nonzero;stroke:none" /><path
           d="m 994.895,175.666 54.603,0"
           id="path348"
           style="fill:#ffffff;fill-opacity:1;fill-rule:nonzero;stroke:none" /><path
           d="m 994.895,173.133 54.603,0"
           id="path350"
           style="fill:#ffffff;fill-opacity:1;fill-rule:nonzero;stroke:none" /><path
           d="m 994.895,170.601 54.603,0"
           id="path352"
           style="fill:#ffffff;fill-opacity:1;fill-rule:nonzero;stroke:none" /><path
           d="m 994.895,168.068 54.603,0"
           id="path354"
           style="fill:#ffffff;fill-opacity:1;fill-rule:nonzero;stroke:none" /><path
           d="m 994.895,165.535 54.603,0"
           id="path356"
           style="fill:#ffffff;fill-opacity:1;fill-rule:nonzero;stroke:none" /><path
           d="m 994.895,163.003 54.603,0"
           id="path358"
           style="fill:#ffffff;fill-opacity:1;fill-rule:nonzero;stroke:none" /><path
           d="m 994.895,160.47 54.603,0"
           id="path360"
           style="fill:#ffffff;fill-opacity:1;fill-rule:nonzero;stroke:none" /><path
           d="m 994.895,157.938 54.603,0"
           id="path362"
           style="fill:#ffffff;fill-opacity:1;fill-rule:nonzero;stroke:none" /><path
           d="m 994.895,155.405 54.603,0"
           id="path364"
           style="fill:#ffffff;fill-opacity:1;fill-rule:nonzero;stroke:none" /><path
           d="m 994.895,152.872 54.603,0"
           id="path366"
           style="fill:#ffffff;fill-opacity:1;fill-rule:nonzero;stroke:none" /><path
           d="m 994.895,150.34 54.603,0"
           id="path368"
           style="fill:#ffffff;fill-opacity:1;fill-rule:nonzero;stroke:none" /></g></g></g></svg>